# Blender 3.3.1
# www.blender.org
mtllib selBox.mtl
o Cube
v -0.500000 -0.500000 0.500000
v -0.500000 0.500000 0.500000
v -0.500000 -0.500000 -0.500000
v -0.500000 0.500000 -0.500000
v 0.500000 -0.500000 0.500000
v 0.500000 0.500000 0.500000
v 0.500000 -0.500000 -0.500000
v 0.500000 0.500000 -0.500000
v -0.485000 0.436500 -0.500000
v -0.485000 -0.436500 -0.500000
v 0.460750 0.460750 -0.500000
v 0.436500 0.485000 -0.500000
v -0.460750 -0.460750 -0.500000
v -0.436500 0.485000 -0.500000
v -0.436500 -0.485000 -0.500000
v 0.485000 0.436500 -0.500000
v 0.485000 -0.436500 -0.500000
v 0.436500 -0.485000 -0.500000
v -0.460750 0.460750 0.500000
v -0.436500 0.485000 0.500000
v 0.485000 0.436500 0.500000
v 0.485000 -0.436500 0.500000
v 0.460750 -0.460750 0.500000
v 0.436500 0.485000 0.500000
v -0.485000 -0.436500 0.500000
v -0.485000 0.436500 0.500000
v 0.436500 -0.485000 0.500000
v -0.436500 -0.485000 0.500000
v -0.500000 0.436500 0.485000
v -0.500000 -0.436500 0.485000
v -0.500000 0.460750 -0.460750
v -0.500000 0.485000 -0.436500
v -0.500000 -0.460750 0.460750
v -0.500000 0.485000 0.436500
v -0.500000 -0.485000 0.436500
v -0.500000 0.436500 -0.485000
v -0.500000 -0.436500 -0.485000
v -0.500000 -0.485000 -0.436500
v 0.500000 0.460750 0.460750
v 0.500000 0.485000 0.436500
v 0.500000 0.436500 -0.485000
v 0.500000 -0.436500 -0.485000
v 0.500000 -0.460750 -0.460750
v 0.500000 0.485000 -0.436500
v 0.500000 -0.436500 0.485000
v 0.500000 0.436500 0.485000
v 0.500000 -0.485000 -0.436500
v 0.500000 -0.485000 0.436500
v 0.485000 0.436500 0.485000
v 0.485000 0.436500 -0.485000
v 0.485000 -0.436500 0.485000
v 0.485000 -0.436500 -0.485000
v -0.485000 -0.436500 -0.485000
v -0.485000 -0.436500 0.485000
v -0.485000 0.436500 -0.485000
v -0.485000 0.436500 0.485000
v -0.460750 -0.500000 -0.460750
v -0.436500 -0.500000 -0.485000
v 0.436500 -0.500000 -0.485000
v 0.485000 -0.500000 -0.436500
v 0.460750 -0.500000 0.460750
v 0.485000 -0.500000 0.436500
v -0.485000 -0.500000 -0.436500
v -0.485000 -0.500000 0.436500
v 0.436500 -0.500000 0.485000
v -0.436500 -0.500000 0.485000
v -0.485000 0.500000 0.436500
v -0.485000 0.500000 -0.436500
v 0.436500 0.500000 -0.485000
v 0.460750 0.500000 -0.460750
v -0.436500 0.500000 -0.485000
v -0.460750 0.500000 0.460750
v -0.436500 0.500000 0.485000
v 0.436500 0.500000 0.485000
v 0.485000 0.500000 -0.436500
v 0.485000 0.500000 0.436500
v 0.436500 0.485000 0.485000
v -0.436500 0.485000 0.485000
v 0.436500 0.485000 -0.485000
v -0.436500 0.485000 -0.485000
v -0.436500 -0.485000 -0.485000
v -0.460750 -0.460750 -0.460750
v -0.460750 -0.460750 0.460750
v -0.436500 -0.485000 0.485000
v -0.460750 0.460750 -0.460750
v -0.460750 0.460750 0.460750
v 0.460750 -0.460750 -0.460750
v 0.436500 -0.485000 -0.485000
v 0.436500 -0.485000 0.485000
v 0.460750 -0.460750 0.460750
v 0.460750 0.460750 -0.460750
v 0.460750 0.460750 0.460750
v -0.485000 0.485000 0.436500
v -0.485000 0.485000 -0.436500
v 0.485000 0.485000 -0.436500
v 0.485000 0.485000 0.436500
v -0.485000 -0.485000 0.436500
v 0.485000 -0.485000 0.436500
v 0.485000 -0.485000 -0.436500
v -0.485000 -0.485000 -0.436500
vn -1.0000 -0.0000 -0.0000
vn -0.0000 -0.0000 -1.0000
vn 1.0000 -0.0000 -0.0000
vn -0.0000 -0.0000 1.0000
vn -0.0000 -1.0000 -0.0000
vn -0.0000 1.0000 -0.0000
vn 0.7071 0.7071 -0.0000
vn 0.7071 -0.7071 -0.0000
vn -0.7071 0.7071 -0.0000
vn -0.7071 -0.7071 -0.0000
vn -0.0000 0.7071 -0.7071
vn -0.0000 -0.7071 -0.7071
vn -0.0000 0.7071 0.7071
vn -0.0000 -0.7071 0.7071
vn 0.7071 -0.0000 0.7071
vn 0.7071 -0.0000 -0.7071
vn -0.7071 -0.0000 0.7071
vn -0.7071 -0.0000 -0.7071
vt 0.375000 0.000000
vt 0.375000 1.000000
vt 0.125000 0.750000
vt 0.625000 0.000000
vt 0.625000 1.000000
vt 0.875000 0.750000
vt 0.375000 0.250000
vt 0.125000 0.500000
vt 0.625000 0.250000
vt 0.875000 0.500000
vt 0.375000 0.750000
vt 0.625000 0.750000
vt 0.375000 0.500000
vt 0.625000 0.500000
vt 0.609125 0.253750
vt 0.612500 0.151565
vt 0.387500 0.151564
vt 0.390875 0.253750
vt 0.125000 0.598436
vt 0.615188 0.490187
vt 0.625000 0.598436
vt 0.621250 0.484125
vt 0.637500 0.598436
vt 0.384812 0.259812
vt 0.131250 0.598436
vt 0.621250 0.265875
vt 0.862500 0.598436
vt 0.625000 0.151564
vt 0.378750 0.265875
vt 0.137500 0.598436
vt 0.609125 0.496250
vt 0.612500 0.598436
vt 0.390875 0.496250
vt 0.387500 0.598436
vt 0.378750 0.484125
vt 0.362500 0.598436
vt 0.615188 0.990187
vt 0.618750 0.098435
vt 0.621250 0.984125
vt 0.862500 0.651564
vt 0.625000 0.098435
vt 0.609125 0.753750
vt 0.612500 0.651564
vt 0.390875 0.753750
vt 0.387500 0.651564
vt 0.384812 0.759812
vt 0.375000 0.651564
vt 0.621250 0.765875
vt 0.637500 0.651564
vt 0.390875 0.996250
vt 0.387500 0.098435
vt 0.125000 0.651564
vt 0.609125 0.996250
vt 0.612500 0.098436
vt 0.378750 0.765875
vt 0.362500 0.651564
vt 0.378750 0.984125
vt 0.137500 0.651564
vt 0.609125 0.003750
vt 0.612500 0.012500
vt 0.612500 0.151565
vt 0.390875 0.003750
vt 0.387500 0.237500
vt 0.125000 0.598436
vt 0.615188 0.240187
vt 0.625000 0.598435
vt 0.621250 0.234125
vt 0.637500 0.598436
vt 0.384812 0.009812
vt 0.131250 0.598435
vt 0.862500 0.598436
vt 0.621250 0.015875
vt 0.625000 0.151564
vt 0.378750 0.015875
vt 0.137500 0.598436
vt 0.612500 0.512500
vt 0.609125 0.246250
vt 0.612500 0.598436
vt 0.390875 0.246250
vt 0.387500 0.737500
vt 0.387500 0.598435
vt 0.378750 0.234125
vt 0.362500 0.598436
vt 0.615188 0.740188
vt 0.618750 0.098435
vt 0.621250 0.734125
vt 0.862500 0.651564
vt 0.625000 0.098435
vt 0.609125 0.503750
vt 0.612500 0.512500
vt 0.612500 0.651564
vt 0.387500 0.737500
vt 0.390875 0.503750
vt 0.387500 0.651564
vt 0.384812 0.509812
vt 0.375000 0.651564
vt 0.621250 0.515875
vt 0.637500 0.651564
vt 0.390875 0.746250
vt 0.387500 0.237500
vt 0.125000 0.651564
vt 0.609125 0.746250
vt 0.612500 0.012500
vt 0.612500 0.098436
vt 0.378750 0.515875
vt 0.362500 0.651564
vt 0.378750 0.734125
vt 0.137500 0.651564
vt 0.612500 0.012500
vt 0.612500 0.650768
vt 0.612500 0.099232
vt 0.612500 0.599232
vt 0.612500 0.512500
vt 0.612500 0.650768
vt 0.387500 0.650768
vt 0.387500 0.237500
vt 0.125000 0.650768
vt 0.387500 0.599232
vt 0.387500 0.737500
vt 0.387500 0.650768
vt 0.387500 0.150768
vt 0.125000 0.599232
vt 0.387500 0.737500
vt 0.387500 0.599232
vt 0.387500 0.237500
vt 0.387500 0.099232
vt 0.125000 0.650768
vt 0.125000 0.599232
vt 0.612500 0.150768
vt 0.612500 0.512500
vt 0.612500 0.599232
vt 0.612500 0.099232
vt 0.612500 0.012500
vt 0.612500 0.150768
vt 0.134812 0.509812
vt 0.131250 0.651564
vt 0.140875 0.503750
vt 0.137500 0.651564
vt 0.137500 0.737500
vt 0.359125 0.503750
vt 0.362500 0.651564
vt 0.362500 0.512500
vt 0.371250 0.515875
vt 0.387500 0.651564
vt 0.365188 0.740188
vt 0.625000 0.651564
vt 0.371250 0.734125
vt 0.612500 0.651564
vt 0.128750 0.515875
vt 0.387500 0.098435
vt 0.125000 0.651564
vt 0.128750 0.734125
vt 0.612500 0.098435
vt 0.637500 0.737500
vt 0.359125 0.746250
vt 0.637500 0.651564
vt 0.140875 0.746250
vt 0.862500 0.512500
vt 0.625000 0.098435
vt 0.871250 0.734125
vt 0.612500 0.151564
vt 0.871250 0.515875
vt 0.387500 0.151564
vt 0.125000 0.598436
vt 0.640875 0.503750
vt 0.362500 0.598436
vt 0.362500 0.512500
vt 0.634812 0.509812
vt 0.375000 0.598436
vt 0.859125 0.503750
vt 0.137500 0.598435
vt 0.137500 0.737500
vt 0.865188 0.740188
vt 0.618750 0.151564
vt 0.862500 0.512500
vt 0.859125 0.746250
vt 0.625000 0.151565
vt 0.640875 0.746250
vt 0.637500 0.737500
vt 0.637500 0.598436
vt 0.628750 0.515875
vt 0.387500 0.598436
vt 0.628750 0.734125
vt 0.612500 0.598436
vt 0.637500 0.650768
vt 0.637500 0.737500
vt 0.637500 0.599232
vt 0.862500 0.650768
vt 0.625000 0.099232
vt 0.862500 0.512500
vt 0.625000 0.150768
vt 0.362500 0.512500
vt 0.637500 0.599232
vt 0.362500 0.599232
vt 0.862500 0.599232
vt 0.625000 0.150768
vt 0.137500 0.599232
vt 0.137500 0.737500
vt 0.137500 0.737500
vt 0.137500 0.599232
vt 0.137500 0.650768
vt 0.131250 0.600521
vt 0.375000 0.600521
vt 0.131250 0.649479
vt 0.131250 0.649479
vt 0.131250 0.600521
vt 0.618750 0.100521
vt 0.137500 0.650768
vt 0.862500 0.512500
vt 0.625000 0.099232
vt 0.618750 0.149479
vt 0.625000 0.600521
vt 0.131250 0.600521
vt 0.618750 0.100521
vt 0.618750 0.149479
vt 0.375000 0.600521
vt 0.375000 0.649479
vt 0.362500 0.599232
vt 0.362500 0.650768
vt 0.362500 0.512500
vt 0.362500 0.650768
vt 0.637500 0.737500
vt 0.637500 0.650768
vt 0.375000 0.649479
vt 0.131250 0.649479
vt 0.625000 0.649479
vt 0.625000 0.600521
vt 0.625000 0.649479
vt 0.375000 0.600521
vt 0.625000 0.649479
vt 0.618750 0.100521
vt 0.625000 0.600521
vt 0.862500 0.599232
vt 0.625000 0.150768
vt 0.612500 0.150768
vt 0.387500 0.150768
vt 0.637500 0.599232
vt 0.125000 0.599232
vt 0.637500 0.650768
vt 0.387500 0.599232
vt 0.862500 0.650768
vt 0.625000 0.099232
vt 0.612500 0.599232
vt 0.137500 0.599232
vt 0.612500 0.099232
vt 0.137500 0.650768
vt 0.612500 0.650768
vt 0.362500 0.650768
vt 0.387500 0.650768
vt 0.362500 0.599232
vt 0.387500 0.099232
vt 0.125000 0.650768
s 0
usemtl 
f 2/4/1 34/72/1 29/59/1
f 3/7/1 38/82/1 37/79/1
f 4/9/2 14/26/2 9/15/2
f 7/13/2 18/35/2 17/33/2
f 8/14/3 44/97/3 41/89/3
f 5/11/3 48/107/3 45/99/3
f 6/12/4 24/48/4 21/42/4
f 1/2/4 28/57/4 25/50/4
f 7/13/5 60/143/5 59/140/5
f 1/3/5 64/152/5 66/157/5
f 4/10/6 68/162/6 71/170/6
f 6/12/6 76/183/6 74/178/6
f 16/32/1 52/118/1 50/112/1
f 22/45/1 49/110/1 51/115/1
f 20/40/5 77/185/5 24/49/5
f 14/27/5 79/193/5 80/195/5
f 9/16/3 53/121/3 10/17/3
f 25/51/3 56/132/3 26/54/3
f 13/25/7 53/122/7 82/202/7
f 54/127/7 28/58/7 84/208/7
f 55/129/8 14/28/8 80/196/8
f 19/38/8 56/132/8 78/189/8
f 52/118/9 18/36/9 88/218/9
f 23/47/9 51/115/9 90/224/9
f 91/227/10 12/23/10 16/32/10
f 21/43/10 77/185/10 92/230/10
f 18/36/6 81/200/6 88/218/6
f 28/58/6 89/221/6 84/208/6
f 37/80/4 55/130/4 36/76/4
f 41/90/4 52/119/4 42/92/4
f 32/68/5 93/233/5 34/71/5
f 44/98/5 96/241/5 95/239/5
f 46/103/2 51/116/2 49/109/2
f 30/63/2 56/133/2 54/125/2
f 33/70/11 54/128/11 97/244/11
f 51/117/11 48/108/11 98/246/11
f 39/85/12 49/111/12 92/231/12
f 56/134/12 34/73/12 93/234/12
f 43/96/13 52/120/13 87/217/13
f 53/124/13 38/83/13 100/250/13
f 31/66/14 55/131/14 94/237/14
f 50/114/14 44/98/14 95/239/14
f 35/75/6 100/250/6 38/83/6
f 48/108/6 99/248/6 98/246/6
f 75/182/1 96/243/1 76/184/1
f 60/144/1 98/247/1 99/249/1
f 74/179/2 78/190/2 73/175/2
f 66/158/2 89/222/2 65/154/2
f 64/153/3 100/251/3 97/245/3
f 68/163/3 93/235/3 94/236/3
f 71/171/15 94/238/15 85/213/15
f 57/136/15 81/201/15 82/204/15
f 97/245/16 84/210/16 66/159/16
f 72/174/16 78/191/16 93/235/16
f 88/219/17 60/144/17 99/249/17
f 70/169/17 79/194/17 91/229/17
f 76/184/18 92/232/18 77/187/18
f 65/156/18 90/226/18 62/148/18
f 69/167/4 80/198/4 79/192/4
f 58/139/4 88/220/4 81/199/4
f 30/62/1 33/69/1 1/1/1
f 4/9/1 31/65/1 32/67/1
f 4/9/1 32/67/1 34/72/1
f 30/62/1 1/1/1 2/4/1
f 29/59/1 30/62/1 2/4/1
f 2/4/1 4/9/1 34/72/1
f 36/77/1 31/65/1 4/9/1
f 1/1/1 33/69/1 35/74/1
f 1/1/1 35/74/1 38/82/1
f 36/77/1 4/9/1 3/7/1
f 37/79/1 36/77/1 3/7/1
f 3/7/1 1/1/1 38/82/1
f 10/18/2 13/24/2 3/7/2
f 8/14/2 11/20/2 12/22/2
f 8/14/2 12/22/2 14/26/2
f 10/18/2 3/7/2 4/9/2
f 9/15/2 10/18/2 4/9/2
f 4/9/2 8/14/2 14/26/2
f 16/31/2 11/20/2 8/14/2
f 3/7/2 13/24/2 15/29/2
f 3/7/2 15/29/2 18/35/2
f 16/31/2 8/14/2 7/13/2
f 17/33/2 16/31/2 7/13/2
f 7/13/2 3/7/2 18/35/2
f 42/93/3 43/95/3 7/13/3
f 6/12/3 39/84/3 40/86/3
f 6/12/3 40/86/3 44/97/3
f 42/93/3 7/13/3 8/14/3
f 41/89/3 42/93/3 8/14/3
f 8/14/3 6/12/3 44/97/3
f 46/102/3 39/84/3 6/12/3
f 7/13/3 43/95/3 47/105/3
f 7/13/3 47/105/3 48/107/3
f 46/102/3 6/12/3 5/11/3
f 45/99/3 46/102/3 5/11/3
f 5/11/3 7/13/3 48/107/3
f 22/44/4 23/46/4 5/11/4
f 2/5/4 19/37/4 20/39/4
f 2/5/4 20/39/4 24/48/4
f 22/44/4 5/11/4 6/12/4
f 21/42/4 22/44/4 6/12/4
f 6/12/4 2/5/4 24/48/4
f 26/53/4 19/37/4 2/5/4
f 5/11/4 23/46/4 27/55/4
f 5/11/4 27/55/4 28/57/4
f 26/53/4 2/5/4 1/2/4
f 25/50/4 26/53/4 1/2/4
f 1/2/4 5/11/4 28/57/4
f 5/11/5 61/145/5 62/147/5
f 5/11/5 62/147/5 60/143/5
f 58/137/5 57/135/5 3/8/5
f 59/140/5 58/137/5 3/8/5
f 7/13/5 5/11/5 60/143/5
f 59/140/5 3/8/5 7/13/5
f 3/8/5 57/135/5 63/149/5
f 3/8/5 63/149/5 64/152/5
f 65/155/5 61/145/5 5/11/5
f 66/157/5 65/155/5 5/11/5
f 1/3/5 3/8/5 64/152/5
f 66/157/5 5/11/5 1/3/5
f 69/165/6 70/168/6 8/14/6
f 2/6/6 72/173/6 67/160/6
f 2/6/6 67/160/6 68/162/6
f 69/165/6 8/14/6 4/10/6
f 71/170/6 69/165/6 4/10/6
f 4/10/6 2/6/6 68/162/6
f 73/176/6 72/173/6 2/6/6
f 8/14/6 70/168/6 75/181/6
f 8/14/6 75/181/6 76/183/6
f 73/176/6 2/6/6 6/12/6
f 74/178/6 73/176/6 6/12/6
f 6/12/6 8/14/6 76/183/6
f 16/32/1 17/34/1 52/118/1
f 22/45/1 21/43/1 49/110/1
f 20/40/5 78/188/5 77/185/5
f 14/27/5 12/23/5 79/193/5
f 9/16/3 55/129/3 53/121/3
f 25/51/3 54/126/3 56/132/3
f 82/202/7 81/200/7 15/30/7
f 13/25/7 10/19/7 53/122/7
f 82/202/7 15/30/7 13/25/7
f 84/208/7 83/205/7 54/127/7
f 54/127/7 25/52/7 28/58/7
f 80/196/8 85/211/8 55/129/8
f 55/129/8 9/16/8 14/28/8
f 78/189/8 20/41/8 19/38/8
f 19/38/8 26/54/8 56/132/8
f 56/132/8 86/214/8 78/189/8
f 88/218/9 87/216/9 52/118/9
f 52/118/9 17/34/9 18/36/9
f 90/224/9 89/221/9 27/56/9
f 23/47/9 22/45/9 51/115/9
f 90/224/9 27/56/9 23/47/9
f 16/32/10 50/112/10 91/227/10
f 91/227/10 79/193/10 12/23/10
f 12/23/2 11/21/2 16/32/2
f 92/230/10 49/110/10 21/43/10
f 21/43/10 24/49/10 77/185/10
f 18/36/6 15/30/6 81/200/6
f 28/58/6 27/56/6 89/221/6
f 37/80/4 53/123/4 55/130/4
f 41/90/4 50/113/4 52/119/4
f 32/68/5 94/237/5 93/233/5
f 44/98/5 40/87/5 96/241/5
f 46/103/2 45/100/2 51/116/2
f 30/63/2 29/60/2 56/133/2
f 97/244/11 35/75/11 33/70/11
f 33/70/11 30/64/11 54/128/11
f 54/128/11 83/206/11 97/244/11
f 98/246/11 90/225/11 51/117/11
f 51/117/11 45/101/11 48/108/11
f 92/231/12 96/242/12 40/88/12
f 39/85/12 46/104/12 49/111/12
f 92/231/12 40/88/12 39/85/12
f 93/234/12 86/215/12 56/134/12
f 56/134/12 29/61/12 34/73/12
f 87/217/13 99/248/13 47/106/13
f 43/96/13 42/94/13 52/120/13
f 87/217/13 47/106/13 43/96/13
f 100/250/13 82/203/13 53/124/13
f 53/124/13 37/81/13 38/83/13
f 94/237/14 32/68/14 31/66/14
f 31/66/14 36/78/14 55/131/14
f 55/131/14 85/212/14 94/237/14
f 95/239/14 91/228/14 50/114/14
f 50/114/14 41/91/14 44/98/14
f 35/75/6 97/244/6 100/250/6
f 48/108/6 47/106/6 99/248/6
f 75/182/1 95/240/1 96/243/1
f 60/144/1 62/148/1 98/247/1
f 74/179/2 77/186/2 78/190/2
f 66/158/2 84/209/2 89/222/2
f 64/153/3 63/150/3 100/251/3
f 68/163/3 67/161/3 93/235/3
f 85/213/15 80/197/15 71/171/15
f 71/171/15 68/164/15 94/238/15
f 82/204/15 100/252/15 63/151/15
f 57/136/15 58/138/15 81/201/15
f 82/204/15 63/151/15 57/136/15
f 66/159/16 64/153/16 97/245/16
f 97/245/16 83/207/16 84/210/16
f 93/235/16 67/161/16 72/174/16
f 72/174/16 73/177/16 78/191/16
f 78/191/16 86/215/16 93/235/16
f 99/249/17 87/217/17 88/219/17
f 88/219/17 59/141/17 60/144/17
f 91/229/17 95/240/17 75/182/17
f 70/169/17 69/166/17 79/194/17
f 91/229/17 75/182/17 70/169/17
f 77/187/18 74/180/18 76/184/18
f 76/184/18 96/243/18 92/232/18
f 62/148/5 61/146/5 65/156/5
f 65/156/18 89/223/18 90/226/18
f 90/226/18 98/247/18 62/148/18
f 69/167/4 71/172/4 80/198/4
f 58/139/4 59/142/4 88/220/4
